<?xml version="1.0" encoding="UTF-8" standalone="no"?>
<!DOCTYPE svg PUBLIC "-//W3C//DTD SVG 1.1//EN"
 "http://www.w3.org/Graphics/SVG/1.1/DTD/svg11.dtd">
<!-- Generated by graphviz version 2.38.0 (20140413.2041)
 -->
<!-- Title: 008&#45;Rpa&#45;Task Pages: 1 -->
<svg width="530pt" height="91pt"
 viewBox="0.00 0.00 529.69 91.18" xmlns="http://www.w3.org/2000/svg" xmlns:xlink="http://www.w3.org/1999/xlink">
<g id="graph0" class="graph" transform="scale(1 1) rotate(0) translate(4 87.1838)">
<title>008&#45;Rpa&#45;Task</title>
<polygon fill="white" stroke="none" points="-4,4 -4,-87.1838 525.693,-87.1838 525.693,4 -4,4"/>
<!-- Start -->
<g id="node1" class="node"><title>Start</title>
<ellipse fill="#eeeeee" stroke="#cccccc" cx="33.234" cy="-64.0919" rx="33.4697" ry="19.1842"/>
<text text-anchor="middle" x="33.234" y="-60.9919" font-family="Helvetica, Arial, sans-serif" font-size="12.00" fill="#0f0f0f">Start</text>
</g>
<!-- A -->
<g id="node3" class="node"><title>A</title>
<g id="a_node3"><a xlink:title="Check loop condition">
<path fill="#5cb85c" stroke="#5cb85c" d="M225.468,-77.5919C225.468,-77.5919 111.468,-77.5919 111.468,-77.5919 106.968,-77.5919 102.468,-73.0919 102.468,-68.5919 102.468,-68.5919 102.468,-59.5919 102.468,-59.5919 102.468,-55.0919 106.968,-50.5919 111.468,-50.5919 111.468,-50.5919 225.468,-50.5919 225.468,-50.5919 229.968,-50.5919 234.468,-55.0919 234.468,-59.5919 234.468,-59.5919 234.468,-68.5919 234.468,-68.5919 234.468,-73.0919 229.968,-77.5919 225.468,-77.5919"/>
<text text-anchor="middle" x="168.468" y="-60.9919" font-family="Helvetica, Arial, sans-serif" font-size="12.00" fill="#ffffff">Check loop condition</text>
</a>
</g>
</g>
<!-- Start&#45;&gt;A -->
<g id="edge3" class="edge"><title>Start&#45;&gt;A</title>
<path fill="none" stroke="black" d="M66.4863,-64.0919C74.3759,-64.0919 83.1512,-64.0919 92.1418,-64.0919"/>
<polygon fill="black" stroke="black" points="92.3482,-67.592 102.348,-64.0919 92.3482,-60.592 92.3482,-67.592"/>
</g>
<!-- End -->
<g id="node2" class="node"><title>End</title>
<ellipse fill="#eeeeee" stroke="#cccccc" cx="490.581" cy="-19.0919" rx="31.2258" ry="19.1842"/>
<text text-anchor="middle" x="490.581" y="-15.9919" font-family="Helvetica, Arial, sans-serif" font-size="12.00" fill="#0f0f0f">End</text>
</g>
<!-- C -->
<g id="node4" class="node"><title>C</title>
<g id="a_node4"><a xlink:title="Increment current number">
<path fill="#5cb85c" stroke="#5cb85c" d="M414.468,-77.5919C414.468,-77.5919 279.468,-77.5919 279.468,-77.5919 274.968,-77.5919 270.468,-73.0919 270.468,-68.5919 270.468,-68.5919 270.468,-59.5919 270.468,-59.5919 270.468,-55.0919 274.968,-50.5919 279.468,-50.5919 279.468,-50.5919 414.468,-50.5919 414.468,-50.5919 418.968,-50.5919 423.468,-55.0919 423.468,-59.5919 423.468,-59.5919 423.468,-68.5919 423.468,-68.5919 423.468,-73.0919 418.968,-77.5919 414.468,-77.5919"/>
<text text-anchor="middle" x="346.968" y="-60.9919" font-family="Helvetica, Arial, sans-serif" font-size="12.00" fill="#ffffff">Increment current number</text>
</a>
</g>
</g>
<!-- A&#45;&gt;C -->
<g id="edge2" class="edge"><title>A&#45;&gt;C</title>
<path fill="none" stroke="black" d="M234.689,-57.5505C243.017,-57.3964 251.64,-57.3277 260.231,-57.3443"/>
<polygon fill="black" stroke="black" points="260.262,-60.8445 270.282,-57.4031 260.303,-53.8446 260.262,-60.8445"/>
</g>
<!-- D -->
<g id="node5" class="node"><title>D</title>
<g id="a_node5"><a xlink:title="Target reached">
<path fill="#5cb85c" stroke="#5cb85c" d="M388.968,-32.5919C388.968,-32.5919 304.968,-32.5919 304.968,-32.5919 300.468,-32.5919 295.968,-28.0919 295.968,-23.5919 295.968,-23.5919 295.968,-14.5919 295.968,-14.5919 295.968,-10.0919 300.468,-5.59188 304.968,-5.59188 304.968,-5.59188 388.968,-5.59188 388.968,-5.59188 393.468,-5.59188 397.968,-10.0919 397.968,-14.5919 397.968,-14.5919 397.968,-23.5919 397.968,-23.5919 397.968,-28.0919 393.468,-32.5919 388.968,-32.5919"/>
<text text-anchor="middle" x="346.968" y="-15.9919" font-family="Helvetica, Arial, sans-serif" font-size="12.00" fill="#ffffff">Target reached</text>
</a>
</g>
</g>
<!-- A&#45;&gt;D -->
<g id="edge4" class="edge"><title>A&#45;&gt;D</title>
<path fill="none" stroke="black" d="M222.424,-50.5904C242.407,-45.4956 265.281,-39.6638 285.87,-34.4142"/>
<polygon fill="black" stroke="black" points="286.947,-37.7518 295.772,-31.8897 285.217,-30.9688 286.947,-37.7518"/>
</g>
<!-- C&#45;&gt;A -->
<g id="edge1" class="edge"><title>C&#45;&gt;A</title>
<path fill="none" stroke="black" d="M270.282,-70.7807C261.858,-70.8632 253.279,-70.8623 244.859,-70.7778"/>
<polygon fill="black" stroke="black" points="244.737,-67.2758 234.689,-70.6333 244.638,-74.2751 244.737,-67.2758"/>
</g>
<!-- D&#45;&gt;End -->
<g id="edge5" class="edge"><title>D&#45;&gt;End</title>
<path fill="none" stroke="black" d="M398.294,-19.0919C414.989,-19.0919 433.346,-19.0919 449.193,-19.0919"/>
<polygon fill="black" stroke="black" points="449.201,-22.592 459.201,-19.0919 449.201,-15.592 449.201,-22.592"/>
</g>
</g>
</svg>
